<svg xmlns="http://www.w3.org/2000/svg" width="512" height="489.58" viewBox="0 0 512 489.58">
	<style type="text/css">
		.st0{fill:#ffffff;}
	</style>
	<path class="st0" d="M244.79,489.58L244.65,489.58C179.26,489.55 117.8,464.05 71.59,417.79C25.38,371.52 -0.03,310.04 0,244.65C0.03,179.26 25.53,117.8 71.79,71.59C118.02,25.42 179.46,0 244.79,0L244.93,0C279.43,0.01 312.91,7.14 344.42,21.19C354.86,25.84 359.54,38.06 354.9,48.5C350.25,58.93 338.02,63.62 327.59,58.97C301.4,47.3 273.58,41.37 244.91,41.36L244.79,41.36C190.49,41.36 139.44,62.49 101.03,100.86C62.58,139.26 41.39,190.34 41.36,244.67C41.3,356.84 132.5,448.15 244.67,448.22L244.79,448.22C299.09,448.22 350.14,427.09 388.55,388.72C427,350.32 448.19,299.25 448.22,244.91L448.22,224.08C448.22,212.65 457.48,203.39 468.9,203.39C480.32,203.39 489.58,212.65 489.58,224.08L489.58,244.92C489.55,310.32 464.05,371.77 417.79,417.98C371.56,464.16 310.12,489.58 244.79,489.58"/>
	<path class="st0" d="M244.79,310.42C239.5,310.42 234.2,308.4 230.16,304.36L162.93,237.13C154.85,229.05 154.85,215.96 162.93,207.88C171.01,199.8 184.1,199.8 192.18,207.88L244.79,260.49L476.69,28.59C484.76,20.52 497.86,20.52 505.94,28.59C514.01,36.67 514.01,49.76 505.94,57.84L259.41,304.36C255.38,308.4 250.08,310.42 244.79,310.42"/>
</svg>